<svg data-v-423bf9ae="" xmlns="http://www.w3.org/2000/svg" viewBox="0 0 564 100" class="iconLeft"><!----><!----><!----><g data-v-423bf9ae="" id="16e5bcc6-d7f3-46d9-860b-fd6380f088cf" fill="#fff" transform="matrix(5.5652174949646,0,0,5.5652174949646,116.28678131103516,-3.0195631980895996)"><path d="M0.42 14.43L0.42 14.43L0.42 14.01L0.42 14.01Q0.42 13.80 0.63 13.80L0.63 13.80L0.72 13.80L0.72 13.80Q1.67 13.75 1.67 12.47L1.67 12.47L1.67 6.32L1.67 6.32Q1.67 4.98 0.66 4.98L0.66 4.98L0.64 4.98L0.64 4.98Q0.43 4.98 0.43 4.77L0.43 4.77L0.43 4.35L0.43 4.35Q0.43 4.14 0.64 4.14L0.64 4.14L5.78 4.14L5.78 4.14Q6.61 4.14 7.32 4.40L7.32 4.40L7.32 4.40Q8.03 4.66 8.51 5.09L8.51 5.09L8.51 5.09Q8.98 5.52 9.25 6.08L9.25 6.08L9.25 6.08Q9.52 6.64 9.52 7.24L9.52 7.24L9.52 7.24Q9.52 7.79 9.37 8.26L9.37 8.26L9.37 8.26Q9.23 8.72 8.89 9.13L8.89 9.13L8.89 9.13Q8.55 9.54 8.03 9.82L8.03 9.82L8.03 9.82Q7.51 10.10 6.73 10.26L6.73 10.26L6.73 10.26Q5.95 10.42 4.95 10.42L4.95 10.42L3.90 10.42L3.90 12.47L3.90 12.47Q3.90 13.75 4.85 13.80L4.85 13.80L4.94 13.80L4.94 13.80Q5.15 13.80 5.15 14.01L5.15 14.01L5.15 14.43L5.15 14.43Q5.15 14.64 4.94 14.64L4.94 14.64L0.63 14.64L0.63 14.64Q0.42 14.64 0.42 14.43ZM3.82 4.98L3.82 9.43L4.72 9.43L4.72 9.43Q6.13 9.43 6.77 8.91L6.77 8.91L6.77 8.91Q7.42 8.39 7.42 7.24L7.42 7.24L7.42 7.24Q7.42 6.25 6.81 5.62L6.81 5.62L6.81 5.62Q6.21 4.98 5.17 4.98L5.17 4.98L3.82 4.98ZM9.77 14.43L9.77 14.43L9.77 14.01L9.77 14.01Q9.77 13.80 9.98 13.80L9.98 13.80L10.00 13.80L10.00 13.80Q10.50 13.79 10.77 13.43L10.77 13.43L10.77 13.43Q11.02 13.07 11.02 12.52L11.02 12.52L11.02 12.52Q11.02 12.50 11.02 12.47L11.02 12.47L11.02 10.99L11.02 10.99Q11.02 10.70 11.00 10.49L11.00 10.49L11.00 10.49Q10.97 10.29 10.90 10.05L10.90 10.05L10.90 10.05Q10.82 9.81 10.64 9.67L10.64 9.67L10.64 9.67Q10.47 9.53 10.19 9.50L10.19 9.50L10.19 9.50Q10.01 9.48 10.03 9.32L10.03 9.32L10.03 8.85L10.03 8.85Q10.03 8.76 10.07 8.73L10.07 8.73L10.07 8.73Q10.12 8.70 10.23 8.66L10.23 8.66L10.23 8.66Q12.02 8.06 12.80 7.24L12.80 7.24L12.80 7.24Q12.84 7.21 12.87 7.21L12.87 7.21L12.90 7.21L12.90 7.21Q12.91 7.21 12.93 7.23L12.93 7.23L12.93 12.47L12.93 12.47Q12.93 13.06 13.19 13.43L13.19 13.43L13.19 13.43Q13.46 13.80 13.96 13.80L13.96 13.80L13.99 13.80L13.99 13.80Q14.21 13.80 14.21 14.01L14.21 14.01L14.21 14.43L14.21 14.43Q14.21 14.53 14.14 14.59L14.14 14.59L14.14 14.59Q14.07 14.64 13.97 14.64L13.97 14.64L10.01 14.64L10.01 14.64Q9.91 14.64 9.84 14.59L9.84 14.59L9.84 14.59Q9.77 14.53 9.77 14.43ZM10.90 5.33L10.90 5.33L10.90 5.33Q10.90 4.98 11.25 4.63L11.25 4.63L11.25 4.63Q11.59 4.29 11.95 4.29L11.95 4.29L11.95 4.29Q12.30 4.29 12.65 4.63L12.65 4.63L12.65 4.63Q13.00 4.99 13.00 5.33L13.00 5.33L13.00 5.33Q13.00 5.68 12.65 6.04L12.65 6.04L12.65 6.04Q12.30 6.38 11.95 6.38L11.95 6.38L11.95 6.38Q11.59 6.38 11.25 6.04L11.25 6.04L11.25 6.04Q10.90 5.69 10.90 5.33ZM14.76 14.43L14.76 14.43L14.76 13.83L14.76 13.83Q14.76 13.73 14.81 13.68L14.81 13.68L19.21 8.54L17.88 8.61L17.88 8.61Q17.16 8.64 16.66 8.93L16.66 8.93L16.66 8.93Q16.16 9.21 15.78 9.82L15.78 9.82L15.71 9.91L15.71 9.91Q15.65 10.03 15.54 10.03L15.54 10.03L15.54 10.03Q15.49 10.03 15.43 9.99L15.43 9.99L14.95 9.71L14.95 9.71Q14.85 9.66 14.84 9.60L14.84 9.60L14.83 9.55L14.83 9.55Q14.83 9.47 14.87 9.43L14.87 9.43L16.02 7.59L16.02 7.59Q16.10 7.46 16.21 7.46L16.21 7.46L16.21 7.46Q16.26 7.46 16.31 7.51L16.31 7.51L16.37 7.57L16.37 7.57Q16.43 7.64 16.63 7.64L16.63 7.64L21.80 7.64L21.80 7.64Q21.98 7.64 21.98 7.77L21.98 7.77L21.98 7.77Q21.98 7.83 21.92 7.90L21.92 7.90L17.00 13.71L18.09 13.68L18.09 13.68Q19.14 13.64 19.61 13.54L19.61 13.54L19.61 13.54Q20.75 13.30 21.23 12.48L21.23 12.48L21.27 12.40L21.27 12.40Q21.33 12.29 21.44 12.29L21.44 12.29L21.44 12.29Q21.50 12.29 21.55 12.33L21.55 12.33L21.99 12.58L21.99 12.58Q22.10 12.64 22.10 12.74L22.10 12.74L22.10 12.74Q22.10 12.81 22.07 12.87L22.07 12.87L20.98 14.71L20.98 14.71Q20.91 14.83 20.81 14.83L20.81 14.83L20.81 14.83Q20.76 14.83 20.69 14.78L20.69 14.78L20.62 14.71L20.62 14.71Q20.54 14.64 20.36 14.64L20.36 14.64L14.97 14.64L14.97 14.64Q14.76 14.64 14.76 14.43ZM22.37 14.43L22.37 14.43L22.37 13.83L22.37 13.83Q22.37 13.73 22.43 13.68L22.43 13.68L26.82 8.54L25.49 8.61L25.49 8.61Q24.77 8.64 24.27 8.93L24.27 8.93L24.27 8.93Q23.78 9.21 23.39 9.82L23.39 9.82L23.32 9.91L23.32 9.91Q23.26 10.03 23.16 10.03L23.16 10.03L23.16 10.03Q23.11 10.03 23.04 9.99L23.04 9.99L22.57 9.71L22.57 9.71Q22.47 9.66 22.46 9.60L22.46 9.60L22.45 9.55L22.45 9.55Q22.45 9.47 22.48 9.43L22.48 9.43L23.64 7.59L23.64 7.59Q23.71 7.46 23.82 7.46L23.82 7.46L23.82 7.46Q23.88 7.46 23.93 7.51L23.93 7.51L23.99 7.57L23.99 7.57Q24.05 7.64 24.25 7.64L24.25 7.64L29.42 7.64L29.42 7.64Q29.60 7.64 29.60 7.77L29.60 7.77L29.60 7.77Q29.60 7.83 29.54 7.90L29.54 7.90L24.62 13.71L25.70 13.68L25.70 13.68Q26.76 13.64 27.22 13.54L27.22 13.54L27.22 13.54Q28.36 13.30 28.84 12.48L28.84 12.48L28.88 12.40L28.88 12.40Q28.94 12.29 29.05 12.29L29.05 12.29L29.05 12.29Q29.11 12.29 29.17 12.33L29.17 12.33L29.61 12.58L29.61 12.58Q29.72 12.64 29.72 12.74L29.72 12.74L29.72 12.74Q29.72 12.81 29.68 12.87L29.68 12.87L28.59 14.71L28.59 14.71Q28.53 14.83 28.42 14.83L28.42 14.83L28.42 14.83Q28.38 14.83 28.31 14.78L28.31 14.78L28.23 14.71L28.23 14.71Q28.15 14.64 27.97 14.64L27.97 14.64L22.59 14.64L22.59 14.64Q22.37 14.64 22.37 14.43ZM30.13 11.13L30.13 11.13L30.13 11.13Q30.13 10.19 30.40 9.47L30.40 9.47L30.40 9.47Q30.67 8.75 31.14 8.32L31.14 8.32L31.14 8.32Q31.60 7.90 32.18 7.68L32.18 7.68L32.18 7.68Q32.75 7.46 33.41 7.46L33.41 7.46L33.41 7.46Q34.78 7.46 35.68 8.28L35.68 8.28L35.68 8.28Q35.84 8.21 35.98 8.15L35.98 8.15L35.98 8.15Q36.12 8.08 36.25 8.01L36.25 8.01L36.25 8.01Q36.37 7.94 36.46 7.90L36.46 7.90L36.46 7.90Q36.54 7.85 36.65 7.78L36.65 7.78L36.65 7.78Q36.76 7.71 36.79 7.69L36.79 7.69L36.79 7.69Q36.83 7.66 36.94 7.58L36.94 7.58L36.94 7.58Q37.05 7.50 37.06 7.49L37.06 7.49L37.06 7.49Q37.11 7.46 37.13 7.46L37.13 7.46L37.16 7.46L37.16 7.46Q37.17 7.46 37.17 7.49L37.17 7.49L37.17 12.05L37.17 12.05Q37.18 12.34 37.21 12.54L37.21 12.54L37.21 12.54Q37.25 12.75 37.33 12.95L37.33 12.95L37.33 12.95Q37.42 13.15 37.59 13.27L37.59 13.27L37.59 13.27Q37.75 13.39 38.00 13.42L38.00 13.42L38.00 13.42Q38.18 13.44 38.17 13.60L38.17 13.60L38.17 14.08L38.17 14.08Q38.17 14.26 37.96 14.26L37.96 14.26L37.96 14.26Q37.32 14.26 36.80 14.35L36.80 14.35L36.80 14.35Q36.29 14.44 36.04 14.53L36.04 14.53L36.04 14.53Q35.80 14.62 35.38 14.80L35.38 14.80L35.38 14.80Q35.33 14.83 35.27 14.83L35.27 14.83L35.23 14.83L35.23 14.83Q35.21 14.83 35.21 14.78L35.21 14.78L35.38 13.54L35.38 13.54Q35.30 13.72 35.17 13.90L35.17 13.90L35.17 13.90Q35.04 14.09 34.80 14.31L34.80 14.31L34.80 14.31Q34.56 14.54 34.15 14.68L34.15 14.68L34.15 14.68Q33.74 14.83 33.24 14.83L33.24 14.83L33.24 14.83Q32.84 14.83 32.43 14.71L32.43 14.71L32.43 14.71Q32.01 14.59 31.60 14.30L31.60 14.30L31.60 14.30Q31.18 14.01 30.86 13.60L30.86 13.60L30.86 13.60Q30.54 13.19 30.33 12.55L30.33 12.55L30.33 12.55Q30.13 11.91 30.13 11.13ZM31.94 10.68L31.94 10.68L31.94 10.68Q31.94 12.01 32.47 12.80L32.47 12.80L32.47 12.80Q33.00 13.59 33.87 13.59L33.87 13.59L33.87 13.59Q34.17 13.59 34.41 13.49L34.41 13.49L34.41 13.49Q34.65 13.40 34.79 13.27L34.79 13.27L34.79 13.27Q34.94 13.13 35.04 13.00L35.04 13.00L35.04 13.00Q35.14 12.86 35.18 12.76L35.18 12.76L35.22 12.67L35.22 9.86L35.22 9.86Q35.17 9.61 35.08 9.39L35.08 9.39L35.08 9.39Q34.99 9.16 34.82 8.92L34.82 8.92L34.82 8.92Q34.64 8.68 34.35 8.54L34.35 8.54L34.35 8.54Q34.05 8.39 33.66 8.39L33.66 8.39L33.66 8.39Q33.27 8.39 32.96 8.52L32.96 8.52L32.96 8.52Q32.66 8.65 32.47 8.87L32.47 8.87L32.47 8.87Q32.28 9.08 32.16 9.38L32.16 9.38L32.16 9.38Q32.03 9.68 31.99 9.99L31.99 9.99L31.99 9.99Q31.94 10.31 31.94 10.68ZM42.16 11.27L42.16 11.27L42.16 11.27Q42.16 11.12 42.31 11.03L42.31 11.03L42.92 10.68L42.92 10.68Q43.02 10.62 43.09 10.62L43.09 10.62L43.09 10.62Q43.23 10.62 43.33 10.79L43.33 10.79L43.33 10.79Q44.26 12.21 45.41 12.92L45.41 12.92L45.41 12.92Q46.56 13.64 47.80 13.64L47.80 13.64L47.80 13.64Q48.69 13.64 49.19 13.23L49.19 13.23L49.19 13.23Q49.70 12.83 49.70 12.18L49.70 12.18L49.70 12.18Q49.70 11.97 49.65 11.78L49.65 11.78L49.65 11.78Q49.61 11.59 49.53 11.45L49.53 11.45L49.53 11.45Q49.46 11.31 49.33 11.17L49.33 11.17L49.33 11.17Q49.21 11.04 49.08 10.94L49.08 10.94L49.08 10.94Q48.95 10.85 48.76 10.75L48.76 10.75L48.76 10.75Q48.57 10.66 48.41 10.60L48.41 10.60L48.41 10.60Q48.25 10.53 48.01 10.46L48.01 10.46L48.01 10.46Q47.77 10.38 47.60 10.34L47.60 10.34L47.60 10.34Q47.42 10.29 47.15 10.21L47.15 10.21L47.15 10.21Q46.88 10.14 46.70 10.08L46.70 10.08L46.70 10.08Q45.77 9.81 45.08 9.46L45.08 9.46L45.08 9.46Q44.39 9.12 44.00 8.79L44.00 8.79L44.00 8.79Q43.61 8.46 43.38 8.07L43.38 8.07L43.38 8.07Q43.14 7.68 43.07 7.36L43.07 7.36L43.07 7.36Q43.00 7.05 43.00 6.68L43.00 6.68L43.00 6.68Q43.00 5.51 43.96 4.83L43.96 4.83L43.96 4.83Q44.91 4.14 46.54 4.14L46.54 4.14L46.54 4.14Q47.22 4.14 47.90 4.36L47.90 4.36L47.90 4.36Q48.57 4.57 48.94 4.79L48.94 4.79L48.94 4.79Q48.99 4.81 49.02 4.81L49.02 4.81L49.02 4.81Q49.10 4.81 49.10 4.69L49.10 4.69L49.10 4.69Q49.10 4.59 49.05 4.40L49.05 4.40L49.05 4.40Q49.03 4.33 49.03 4.27L49.03 4.27L49.03 4.27Q49.03 4.06 49.28 4.06L49.28 4.06L49.79 4.06L49.79 4.06Q50.05 4.06 50.13 4.29L50.13 4.29L51.12 6.80L51.12 6.80Q51.17 6.95 51.17 6.99L51.17 6.99L51.17 6.99Q51.17 7.12 51.01 7.21L51.01 7.21L50.54 7.46L50.54 7.46Q50.46 7.50 50.38 7.50L50.38 7.50L50.38 7.50Q50.26 7.50 50.13 7.35L50.13 7.35L50.13 7.35Q49.29 6.30 48.39 5.78L48.39 5.78L48.39 5.78Q47.49 5.27 46.72 5.27L46.72 5.27L46.72 5.27Q46.43 5.27 46.18 5.32L46.18 5.32L46.18 5.32Q45.94 5.37 45.71 5.50L45.71 5.50L45.71 5.50Q45.48 5.63 45.35 5.88L45.35 5.88L45.35 5.88Q45.22 6.13 45.22 6.47L45.22 6.47L45.22 6.47Q45.22 6.78 45.40 7.04L45.40 7.04L45.40 7.04Q45.59 7.31 45.92 7.50L45.92 7.50L45.92 7.50Q46.26 7.70 46.61 7.84L46.61 7.84L46.61 7.84Q46.96 7.98 47.41 8.11L47.41 8.11L47.41 8.11Q47.97 8.27 48.34 8.38L48.34 8.38L48.34 8.38Q48.71 8.50 49.21 8.69L49.21 8.69L49.21 8.69Q49.72 8.89 50.04 9.06L50.04 9.06L50.04 9.06Q50.37 9.24 50.73 9.51L50.73 9.51L50.73 9.51Q51.09 9.78 51.30 10.06L51.30 10.06L51.30 10.06Q51.51 10.35 51.65 10.73L51.65 10.73L51.65 10.73Q51.78 11.12 51.78 11.55L51.78 11.55L51.78 11.55Q51.78 12.97 50.69 13.86L50.69 13.86L50.69 13.86Q49.60 14.75 47.71 14.75L47.71 14.75L47.71 14.75Q46.47 14.75 45.42 14.24L45.42 14.24L45.42 14.24Q45.33 14.19 45.25 14.19L45.25 14.19L45.25 14.19Q45.07 14.19 45.16 14.49L45.16 14.49L45.16 14.49Q45.19 14.57 45.19 14.66L45.19 14.66L45.19 14.66Q45.19 14.82 44.96 14.81L44.96 14.81L44.26 14.81L44.26 14.81Q44.01 14.81 43.91 14.62L43.91 14.62L42.21 11.44L42.21 11.44Q42.16 11.35 42.16 11.27ZM51.97 8.27L51.97 8.27L51.97 7.85L51.97 7.85Q51.97 7.64 52.18 7.64L52.18 7.64L53.19 7.64L53.19 6.71L53.19 6.71Q53.19 6.53 53.32 6.45L53.32 6.45L53.32 6.45Q54.29 5.93 55.04 5.30L55.04 5.30L55.04 5.30Q55.07 5.26 55.10 5.26L55.10 5.26L55.12 5.26L55.12 5.26Q55.15 5.26 55.15 5.28L55.15 5.28L55.15 7.64L57.03 7.64L57.03 7.64Q57.24 7.64 57.24 7.85L57.24 7.85L57.24 8.46L57.24 8.46Q57.24 8.67 57.03 8.67L57.03 8.67L55.16 8.67L55.16 12.67L55.16 12.67Q55.16 13.62 55.74 13.62L55.74 13.62L55.74 13.62Q56.10 13.62 56.74 13.22L56.74 13.22L56.75 13.21L56.75 13.21Q56.81 13.17 56.88 13.17L56.88 13.17L56.88 13.17Q56.96 13.17 57.04 13.28L57.04 13.28L57.26 13.63L57.26 13.63Q57.31 13.69 57.31 13.75L57.31 13.75L57.31 13.75Q57.31 13.84 57.20 13.92L57.20 13.92L56.78 14.18L56.78 14.18Q55.75 14.82 54.82 14.82L54.82 14.82L54.82 14.82Q54.48 14.82 54.20 14.71L54.20 14.71L54.20 14.71Q53.92 14.61 53.68 14.37L53.68 14.37L53.68 14.37Q53.45 14.13 53.32 13.70L53.32 13.70L53.32 13.70Q53.19 13.27 53.19 12.67L53.19 12.67L53.19 10.08L53.19 10.08Q53.19 9.86 53.19 9.74L53.19 9.74L53.19 9.74Q53.18 9.63 53.17 9.43L53.17 9.43L53.17 9.43Q53.15 9.24 53.11 9.13L53.11 9.13L53.11 9.13Q53.07 9.02 53.00 8.88L53.00 8.88L53.00 8.88Q52.93 8.74 52.82 8.66L52.82 8.66L52.82 8.66Q52.72 8.59 52.55 8.54L52.55 8.54L52.55 8.54Q52.39 8.48 52.18 8.48L52.18 8.48L52.18 8.48Q51.97 8.48 51.97 8.27ZM57.76 11.13L57.76 11.13L57.76 11.13Q57.76 10.19 58.03 9.47L58.03 9.47L58.03 9.47Q58.30 8.75 58.76 8.32L58.76 8.32L58.76 8.32Q59.23 7.90 59.80 7.68L59.80 7.68L59.80 7.68Q60.38 7.46 61.03 7.46L61.03 7.46L61.03 7.46Q62.41 7.46 63.30 8.28L63.30 8.28L63.30 8.28Q63.46 8.21 63.60 8.15L63.60 8.15L63.60 8.15Q63.75 8.08 63.87 8.01L63.87 8.01L63.87 8.01Q64.00 7.94 64.08 7.90L64.08 7.90L64.08 7.90Q64.16 7.85 64.27 7.78L64.27 7.78L64.27 7.78Q64.38 7.71 64.42 7.69L64.42 7.69L64.42 7.69Q64.46 7.66 64.57 7.58L64.57 7.58L64.57 7.58Q64.67 7.50 64.69 7.49L64.69 7.49L64.69 7.49Q64.73 7.46 64.75 7.46L64.75 7.46L64.78 7.46L64.78 7.46Q64.80 7.46 64.80 7.49L64.80 7.49L64.80 12.05L64.80 12.05Q64.80 12.34 64.84 12.54L64.84 12.54L64.84 12.54Q64.87 12.75 64.96 12.95L64.96 12.95L64.96 12.95Q65.04 13.15 65.21 13.27L65.21 13.27L65.21 13.27Q65.38 13.39 65.63 13.42L65.63 13.42L65.63 13.42Q65.80 13.44 65.79 13.60L65.79 13.60L65.79 14.08L65.79 14.08Q65.79 14.26 65.58 14.26L65.58 14.26L65.58 14.26Q64.94 14.26 64.43 14.35L64.43 14.35L64.43 14.35Q63.91 14.44 63.67 14.53L63.67 14.53L63.67 14.53Q63.42 14.62 63.01 14.80L63.01 14.80L63.01 14.80Q62.95 14.83 62.89 14.83L62.89 14.83L62.86 14.83L62.86 14.83Q62.84 14.83 62.84 14.78L62.84 14.78L63 13.54L63 13.54Q62.92 13.72 62.79 13.90L62.79 13.90L62.79 13.90Q62.67 14.09 62.42 14.31L62.42 14.31L62.42 14.31Q62.18 14.54 61.77 14.68L61.77 14.68L61.77 14.68Q61.37 14.83 60.86 14.83L60.86 14.83L60.86 14.83Q60.46 14.83 60.05 14.71L60.05 14.71L60.05 14.71Q59.64 14.59 59.22 14.30L59.22 14.30L59.22 14.30Q58.80 14.01 58.48 13.60L58.48 13.60L58.48 13.60Q58.16 13.19 57.96 12.55L57.96 12.55L57.96 12.55Q57.76 11.91 57.76 11.13ZM59.56 10.68L59.56 10.68L59.56 10.68Q59.56 12.01 60.09 12.80L60.09 12.80L60.09 12.80Q60.63 13.59 61.50 13.59L61.50 13.59L61.50 13.59Q61.79 13.59 62.03 13.49L62.03 13.49L62.03 13.49Q62.28 13.40 62.42 13.27L62.42 13.27L62.42 13.27Q62.56 13.13 62.67 13.00L62.67 13.00L62.67 13.00Q62.77 12.86 62.81 12.76L62.81 12.76L62.84 12.67L62.84 9.86L62.84 9.86Q62.79 9.61 62.70 9.39L62.70 9.39L62.70 9.39Q62.61 9.16 62.44 8.92L62.44 8.92L62.44 8.92Q62.27 8.68 61.97 8.54L61.97 8.54L61.97 8.54Q61.67 8.39 61.28 8.39L61.28 8.39L61.28 8.39Q60.89 8.39 60.59 8.52L60.59 8.52L60.59 8.52Q60.28 8.65 60.09 8.87L60.09 8.87L60.09 8.87Q59.90 9.08 59.78 9.38L59.78 9.38L59.78 9.38Q59.66 9.68 59.61 9.99L59.61 9.99L59.61 9.99Q59.56 10.31 59.56 10.68ZM66.38 14.43L66.38 14.43L66.38 14.01L66.38 14.01Q66.38 13.80 66.59 13.80L66.59 13.80L66.62 13.80L66.62 13.80Q67.12 13.80 67.38 13.43L67.38 13.43L67.38 13.43Q67.64 13.06 67.64 12.47L67.64 12.47L67.64 10.71L67.64 10.71Q67.64 10.37 67.62 10.14L67.62 10.14L67.62 10.14Q67.59 9.92 67.52 9.67L67.52 9.67L67.52 9.67Q67.44 9.41 67.27 9.27L67.27 9.27L67.27 9.27Q67.09 9.13 66.81 9.10L66.81 9.10L66.81 9.10Q66.64 9.08 66.65 8.92L66.65 8.92L66.65 8.44L66.65 8.44Q66.65 8.29 66.85 8.26L66.85 8.26L66.85 8.26Q67.74 8.11 68.50 7.81L68.50 7.81L68.50 7.81Q69.26 7.50 69.62 7.24L69.62 7.24L69.62 7.24Q69.67 7.21 69.69 7.21L69.69 7.21L69.72 7.21L69.72 7.21Q69.73 7.21 69.73 7.23L69.73 7.23L69.41 9.11L69.41 9.11Q69.78 8.32 70.44 7.89L70.44 7.89L70.44 7.89Q71.10 7.46 71.87 7.46L71.87 7.46L71.87 7.46Q72.56 7.46 73.00 7.84L73.00 7.84L73.00 7.84Q73.45 8.22 73.45 8.91L73.45 8.91L73.45 8.91Q73.45 9.28 73.38 9.49L73.38 9.49L73.38 9.49Q73.32 9.70 73.08 9.80L73.08 9.80L71.77 10.34L71.77 10.34Q71.71 10.36 71.65 10.36L71.65 10.36L71.65 10.36Q71.52 10.36 71.52 10.23L71.52 10.23L71.52 10.23Q71.52 10.16 71.54 10.10L71.54 10.10L71.54 10.10Q71.67 9.79 71.67 9.41L71.67 9.41L71.67 9.41Q71.67 9.04 71.49 8.86L71.49 8.86L71.49 8.86Q71.31 8.68 71.01 8.68L71.01 8.68L71.01 8.68Q70.57 8.68 70.18 9.06L70.18 9.06L70.18 9.06Q69.79 9.44 69.61 9.89L69.61 9.89L69.61 12.47L69.61 12.47Q69.61 13.06 69.88 13.43L69.88 13.43L69.88 13.43Q70.14 13.80 70.64 13.80L70.64 13.80L70.66 13.80L70.66 13.80Q70.88 13.80 70.88 14.01L70.88 14.01L70.88 14.43L70.88 14.43Q70.88 14.64 70.66 14.64L70.66 14.64L66.59 14.64L66.59 14.64Q66.38 14.64 66.38 14.43ZM73.53 12.33L73.53 12.33L73.53 12.33Q73.53 12.22 73.65 12.15L73.65 12.15L74.08 11.90L74.08 11.90Q74.13 11.87 74.20 11.87L74.20 11.87L74.20 11.87Q74.31 11.87 74.37 11.98L74.37 11.98L74.37 11.98Q75.61 13.87 77.54 13.87L77.54 13.87L77.54 13.87Q78.89 13.87 78.89 13.07L78.89 13.07L78.89 13.07Q78.89 12.95 78.85 12.85L78.85 12.85L78.85 12.85Q78.81 12.74 78.72 12.65L78.72 12.65L78.72 12.65Q78.63 12.56 78.55 12.49L78.55 12.49L78.55 12.49Q78.47 12.41 78.31 12.34L78.31 12.34L78.31 12.34Q78.15 12.26 78.04 12.22L78.04 12.22L78.04 12.22Q77.94 12.17 77.73 12.10L77.73 12.10L77.73 12.10Q77.52 12.04 77.41 12.00L77.41 12.00L77.41 12.00Q77.31 11.97 77.08 11.90L77.08 11.90L77.08 11.90Q76.85 11.84 76.76 11.81L76.76 11.81L76.76 11.81Q76.09 11.61 75.61 11.39L75.61 11.39L75.61 11.39Q75.12 11.16 74.83 10.93L74.83 10.93L74.83 10.93Q74.55 10.71 74.38 10.44L74.38 10.44L74.38 10.44Q74.20 10.17 74.15 9.93L74.15 9.93L74.15 9.93Q74.09 9.69 74.09 9.39L74.09 9.39L74.09 9.39Q74.09 8.54 74.75 8.00L74.75 8.00L74.75 8.00Q75.41 7.47 76.49 7.47L76.49 7.47L76.49 7.47Q77.07 7.47 77.57 7.62L77.57 7.62L77.57 7.62Q78.08 7.77 78.35 7.93L78.35 7.93L78.35 7.93Q78.39 7.95 78.41 7.95L78.41 7.95L78.41 7.95Q78.51 7.95 78.43 7.66L78.43 7.66L78.43 7.66Q78.42 7.59 78.42 7.56L78.42 7.56L78.42 7.56Q78.42 7.42 78.59 7.42L78.59 7.42L78.96 7.42L78.96 7.42Q79.13 7.42 79.19 7.58L79.19 7.58L79.90 9.36L79.90 9.36Q79.93 9.45 79.93 9.50L79.93 9.50L79.93 9.50Q79.93 9.59 79.82 9.65L79.82 9.65L79.48 9.83L79.48 9.83Q79.41 9.86 79.37 9.86L79.37 9.86L79.37 9.86Q79.28 9.86 79.19 9.75L79.19 9.75L79.19 9.75Q78.61 9.02 77.93 8.67L77.93 8.67L77.93 8.67Q77.25 8.32 76.69 8.32L76.69 8.32L76.69 8.32Q76.26 8.32 75.98 8.49L75.98 8.49L75.98 8.49Q75.71 8.66 75.71 9.03L75.71 9.03L75.71 9.03Q75.71 9.25 75.83 9.42L75.83 9.42L75.83 9.42Q75.96 9.60 76.21 9.72L76.21 9.72L76.21 9.72Q76.46 9.84 76.69 9.92L76.69 9.92L76.69 9.92Q76.92 10.00 77.27 10.09L77.27 10.09L77.27 10.09Q78.44 10.39 78.91 10.59L78.91 10.59L78.91 10.59Q80.27 11.16 80.42 12.26L80.42 12.26L80.42 12.26Q80.43 12.39 80.43 12.53L80.43 12.53L80.43 12.53Q80.43 13.53 79.63 14.17L79.63 14.17L79.63 14.17Q78.83 14.81 77.48 14.81L77.48 14.81L77.48 14.81Q76.60 14.81 75.86 14.44L75.86 14.44L75.86 14.44Q75.78 14.41 75.74 14.41L75.74 14.41L75.74 14.41Q75.61 14.41 75.67 14.62L75.67 14.62L75.67 14.62Q75.69 14.68 75.69 14.73L75.69 14.73L75.69 14.73Q75.69 14.85 75.52 14.84L75.52 14.84L75.02 14.84L75.02 14.84Q74.86 14.84 74.78 14.70L74.78 14.70L73.57 12.44L73.57 12.44Q73.53 12.37 73.53 12.33Z"></path></g><!----><g data-v-423bf9ae="" id="5026e65c-37de-49b5-bbec-dad2e19335d4" transform="matrix(1.0495225191116333,0,0,1.0495225191116333,-3.500697135925293,-0.6445761919021606)" stroke="none" fill="#c1a35f"><path d="M14.257 65.774c4.191 9.445 11.735 16.402 20.631 20.071l13.931-34.924-34.562 14.853zm6.037 3.583a3.835 3.835 0 0 1 7.049-3.029 3.835 3.835 0 0 1-2.01 5.039 3.834 3.834 0 0 1-5.039-2.01zm13.961 9.952a3.833 3.833 0 0 1-5.038-2.01 3.834 3.834 0 0 1 2.01-5.037 3.834 3.834 0 0 1 5.038 2.009 3.834 3.834 0 0 1-2.01 5.038zm3.173-12.049a3.835 3.835 0 1 1-3.028-7.049 3.835 3.835 0 0 1 3.028 7.049zM11.821 35.463l-5.004-1.996c-4.142 10.69-4.309 22.922.452 34.308l4.933-2.12c-4.169-10.009-4.015-20.773-.381-30.192zM33.217 12.967l-2.12-4.934c-11.29 4.985-19.587 13.974-23.94 24.579l5.005 1.996c3.845-9.334 11.143-17.249 21.055-21.641zM64.254 12.223l1.997-5.005c-10.69-4.141-22.923-4.308-34.308.452l2.12 4.934c10.008-4.169 20.772-4.016 30.191-.381zM35.744 86.188c8.98 3.46 19.241 3.605 28.782-.363L49.673 51.263 35.744 86.188zm10.446-2.126a3.836 3.836 0 1 1-4.656-6.097 3.836 3.836 0 0 1 4.656 6.097zm.149-11.312a3.835 3.835 0 0 1 6.096-4.655 3.834 3.834 0 1 1-6.096 4.655zM58.648 84.2a3.833 3.833 0 0 1-5.375-.721 3.834 3.834 0 1 1 6.095-4.655 3.833 3.833 0 0 1-.72 5.376zM56.498 43.198l34.561-14.852C86.868 18.9 79.323 11.943 70.427 8.273L56.498 43.198zm14.242-9.547a3.835 3.835 0 1 1 2.231-4.942 3.833 3.833 0 0 1-2.231 4.942zm14.498-8.509a3.836 3.836 0 1 1-7.178 2.71 3.836 3.836 0 0 1 7.178-2.71zm-10.794-3.387a3.834 3.834 0 0 1-4.943-2.231 3.834 3.834 0 1 1 7.175-2.712 3.834 3.834 0 0 1-2.232 4.943z"></path><path d="M92.75 27.619l4.934-2.12C92.7 14.208 83.711 5.912 73.105 1.559l-1.996 5.004c9.334 3.846 17.249 11.144 21.641 21.056zM85.785 63.975c3.461-8.98 3.605-19.241-.362-28.782L50.861 50.044l34.924 13.931zm-9.471-21.974a3.835 3.835 0 0 1 5.137-1.745 3.836 3.836 0 1 1-5.137 1.745zM81.212 52.2a3.836 3.836 0 1 1-3.394 6.88 3.836 3.836 0 0 1 3.394-6.88zm-10.983-6.527a3.835 3.835 0 1 1-3.388 6.88 3.834 3.834 0 1 1 3.388-6.88zM65.372 85.461c9.445-4.191 16.402-11.735 20.072-20.631L50.52 50.898l14.852 34.563zm9.036-22.212a3.836 3.836 0 1 1 2.736 7.169 3.836 3.836 0 0 1-2.736-7.169zm-11.907-3.67a3.833 3.833 0 0 1 4.95 2.219 3.834 3.834 0 1 1-7.166 2.732 3.835 3.835 0 0 1 2.216-4.951zm3.602 12.255a3.837 3.837 0 0 1 2.736 7.169 3.837 3.837 0 0 1-2.736-7.169zM35.062 87.896l-1.996 5.005c10.689 4.142 22.922 4.31 34.308-.452l-2.12-4.934c-10.009 4.169-20.774 4.015-30.192.381zM33.944 14.659C24.498 18.85 17.542 26.394 13.872 35.29l34.924 13.93-14.852-34.561zm-8.255 22.017a3.837 3.837 0 1 1-2.787-7.15 3.837 3.837 0 0 1 2.787 7.15zm11.935 3.579a3.836 3.836 0 1 1-2.788-7.147 3.836 3.836 0 0 1 2.788 7.147zM33.93 28.027a3.836 3.836 0 1 1-2.788-7.147 3.836 3.836 0 0 1 2.788 7.147z"></path><path d="M66.099 87.152l2.12 4.934c11.29-4.983 19.587-13.973 23.94-24.578l-5.005-1.996c-3.846 9.334-11.143 17.249-21.055 21.64zM87.113 34.465c4.168 10.008 4.016 20.773.382 30.191l5.005 1.997c4.141-10.69 4.309-22.923-.452-34.308l-4.935 2.12zM13.53 36.145c-3.46 8.98-3.605 19.241.363 28.783l34.562-14.852L13.53 36.145zm8.618 21.968a3.837 3.837 0 1 1-6.782-3.59 3.837 3.837 0 0 1 6.782 3.59zm.588-11.931a3.836 3.836 0 1 1-6.78-3.588 3.836 3.836 0 0 1 6.78 3.588zm10.786 6.842a3.836 3.836 0 1 1-6.782-3.587 3.836 3.836 0 0 1 6.782 3.587zM63.571 13.932c-8.979-3.46-19.24-3.605-28.781.363l14.852 34.562 13.929-34.925zm-11.723 4.447a3.836 3.836 0 0 1 6.944 3.26 3.837 3.837 0 1 1-6.944-3.26zm.627 14.362a3.835 3.835 0 1 1-6.944-3.259 3.835 3.835 0 0 1 6.944 3.259zm-7.47-16.219a3.836 3.836 0 1 1-3.262 6.945 3.836 3.836 0 0 1 3.262-6.945zM12.565 66.501l-4.934 2.12c4.984 11.289 13.974 19.587 24.579 23.94l1.996-5.007c-9.333-3.844-17.249-11.141-21.641-21.053z"></path></g><!----></svg>